<svg xmlns="http://www.w3.org/2000/svg" width="21.732" height="24.385" viewBox="0 0 21.732 24.385"><defs><style>.a{fill:#008f7e;fill-rule:evenodd;}</style></defs><g transform="translate(-0.001 0)"><g transform="translate(-51 -552)"><g transform="translate(32 532)"><g transform="translate(19 20)"><path class="a" d="M9.367,7.5a1.5,1.5,0,1,1,1.5,1.5,1.5,1.5,0,0,1-1.5-1.5m4,0a2.5,2.5,0,1,0-2.5,2.5,2.5,2.5,0,0,0,2.5-2.5"/><g transform="translate(0 14.385)"><path class="a" d="M17.691.647a.5.5,0,0,0-.292.644L20,8.23,15.867,6.577l-5,2-5-2L1.733,8.23l2.6-6.939A.5.5,0,1,0,3.4.939L0,10,5.867,7.654l5,2,5-2L21.733,10,18.335.939a.5.5,0,0,0-.644-.292"/></g><path class="a" d="M10.867,1a6.508,6.508,0,0,1,6.5,6.5c0,3.134-5.059,9.478-6.5,11.222-1.442-1.744-6.5-8.086-6.5-11.222a6.508,6.508,0,0,1,6.5-6.5Zm0,19.267.379-.441c.291-.338,7.121-8.32,7.121-12.326a7.5,7.5,0,0,0-15,0c0,4.006,6.83,11.988,7.121,12.326Z"/></g></g></g></g></svg>