<svg xmlns="http://www.w3.org/2000/svg" width="11.617" height="10.919" viewBox="0 0 11.617 10.919"><defs><style>.a{fill:#ffcd46;}</style></defs><g transform="translate(-26 1161.213)"><path class="a" d="M31.707-1160.912c-.056.169-.151.46-.214.646l-.351,1.068c-.133.4-.345,1.048-.473,1.437l-.233.708H28.218c-1.22,0-2.218,0-2.218.007s.16.122.356.262l1.775,1.273c.782.561,1.428,1.026,1.437,1.034s.052-.088-.4,1.266c-.176.536-.324.985-.591,1.8l-.3.92a1.615,1.615,0,0,0-.056.192c.007.006-.222.169,1.8-1.281l1.761-1.263.031-.022.717.515c2.3,1.654,2.872,2.061,2.875,2.058s-.043-.144-.1-.317-.2-.616-.325-.986l-.763-2.323c-.136-.414-.174-.53-.174-.541s.8-.586,1.787-1.292,1.787-1.287,1.787-1.291-.855-.01-2.217-.01l-2.216,0-.154-.47c-.085-.259-.256-.777-.379-1.152l-.527-1.6c-.166-.507-.306-.925-.309-.928A2.765,2.765,0,0,0,31.707-1160.912Z" transform="translate(0 0)"/></g></svg>