<svg xmlns="http://www.w3.org/2000/svg" xmlns:xlink="http://www.w3.org/1999/xlink" width="42.577" height="47.618" viewBox="0 0 42.577 47.618"><defs><style>.a{fill:url(#a);}.b{fill:#f4f0ff;}.b,.c{fill-rule:evenodd;}.c{fill:#00baa4;}.d{filter:url(#b);}</style><radialGradient id="a" cx="0.5" cy="0.5" r="0.473" gradientTransform="translate(1.042) rotate(90) scale(1 1.084)" gradientUnits="objectBoundingBox"><stop offset="0" stop-color="#a0a0a0"/><stop offset="1" stop-color="#b0b0b0" stop-opacity="0"/></radialGradient><filter id="b" x="0" y="0" width="42.577" height="47.618" filterUnits="userSpaceOnUse"><feOffset dy="3" input="SourceAlpha"/><feGaussianBlur stdDeviation="3" result="c"/><feFlood flood-opacity="0.161"/><feComposite operator="in" in2="c"/><feComposite in="SourceGraphic"/></filter></defs><g transform="translate(9 6)"><g transform="translate(0 0)"><ellipse class="a" cx="5.987" cy="1.89" rx="5.987" ry="1.89" transform="translate(6.303 27.097)"/><g class="d" transform="matrix(1, 0, 0, 1, -9, -6)"><path class="b" d="M12.288,30.118q12.288-10.327,12.288-17.19A12.352,12.352,0,0,0,12.288.5,12.352,12.352,0,0,0,0,12.928Q0,19.791,12.288,30.118Z" transform="translate(9 5.5)"/></g><path class="c" d="M21.345,12.267a1.6,1.6,0,1,0-3.187,0v3.761a.377.377,0,1,0,.749,0V12.267a.848.848,0,1,1,1.687,0v9.8a.835.835,0,0,1-.79.847.772.772,0,0,1-.658-.392l-.013-.018L12.991,11.489a1.723,1.723,0,0,0-1.4-.987A1.687,1.687,0,0,0,10,12.267v7.313a1.689,1.689,0,0,0,1.593,1.765,1.685,1.685,0,0,0,1.593-1.758l.008-3.618a.377.377,0,1,0-.749-.011l-.006,3.623a.848.848,0,1,1-1.687,0V12.267a.894.894,0,0,1,.843-.935c.463,0,.739.554.741.557l.011.021,6.143,11.025a1.8,1.8,0,0,0,.478.527,1.321,1.321,0,0,0,.674.263l.163.01a1.635,1.635,0,0,0,1.544-1.71V12.276Z" transform="translate(-3.698 -4.2)"/></g></g></svg>