<svg xmlns="http://www.w3.org/2000/svg" xmlns:xlink="http://www.w3.org/1999/xlink" width="31.838" height="40" viewBox="0 0 31.838 40"><defs><style>.a{fill:url(#a);}.b{fill:#00baa4;}.b,.c{fill-rule:evenodd;}.c{fill:#fff;}</style><radialGradient id="a" cx="0.5" cy="0.5" r="0.473" gradientTransform="translate(1.042) rotate(90) scale(1 1.084)" gradientUnits="objectBoundingBox"><stop offset="0" stop-color="#a0a0a0"/><stop offset="1" stop-color="#b0b0b0" stop-opacity="0"/></radialGradient></defs><g transform="translate(0 -0.5)"><g transform="translate(0 0.5)"><ellipse class="a" cx="7.756" cy="2.449" rx="7.756" ry="2.449" transform="translate(8.165 35.103)"/><path class="b" d="M15.919,38.868Q31.838,25.491,31.838,16.6A16,16,0,0,0,15.919.5,16,16,0,0,0,0,16.6Q0,25.491,15.919,38.868Z" transform="translate(0 -0.5)"/><path class="c" d="M24.7,12.791a2.076,2.076,0,1,0-4.129,0v4.872a.488.488,0,1,0,.971,0V12.791a1.1,1.1,0,1,1,2.185,0v12.7a1.082,1.082,0,0,1-1.023,1.1,1,1,0,0,1-.853-.507l-.017-.023-7.956-14.27A2.232,2.232,0,0,0,12.065,10.5,2.185,2.185,0,0,0,10,12.791v9.474a2.187,2.187,0,0,0,2.063,2.286,2.183,2.183,0,0,0,2.063-2.278l.011-4.687a.488.488,0,1,0-.971-.015l-.008,4.693a1.1,1.1,0,1,1-2.185,0V12.791a1.158,1.158,0,0,1,1.093-1.211c.6,0,.958.718.96.722l.015.027L21,26.613a2.337,2.337,0,0,0,.619.682,1.712,1.712,0,0,0,.874.341l.211.013a2.118,2.118,0,0,0,2-2.215V12.8Z" transform="translate(-1.836 -2.34)"/></g></g></svg>